# xmcd
# 
# Track frame offsets:
#     150
#     9862
#     23697
#     40165
#     55555
#     67025
#     81950
#     99092
#     110022
#     128765
#     142617
#     153967
#     171855
#     185410
# 
# Disc length: 2604
# 
# Revision: 0
# Processed by: cddbd v1.5.2PL0 Copyright (c) Steve Scherf et al.
# Submitted via: fre:ac v1.0.17
# 
DISCID=a00a2a0e
DTITLE=Eamon McCann - My Country
DYEAR=0
DGENRE=Country
TTITLE0=Buicks to the Moon
TTITLE1=Leave Me a Picture of You
TTITLE2=Donegal We're Goin' Home
TTITLE3=I Still Can't Say Goodbye
TTITLE4=It Must Be Love
TTITLE5=Another Good Reason
TTITLE6=Who Needs Pictures
TTITLE7=Ain't Love a Lot Like That
TTITLE8=In My Next Life
TTITLE9=Charley Pride Selection
TTITLE10=Creggan
TTITLE11=Wedding Bells
TTITLE12=Lyin' in the Arms of Mary
TTITLE13=The Party's Over
EXTD=Recorded at Sliabh Liag Studios, Kilcar except "Donegal We're Goin' Home"
EXTT0=
EXTT1=
EXTT2=
EXTT3=
EXTT4=
EXTT5=
EXTT6=
EXTT7=
EXTT8=
EXTT9=
EXTT10=
EXTT11=
EXTT12=
EXTT13=
PLAYORDER=
